<svg width="387" height="167" viewBox="0 0 387 167" fill="none" xmlns="http://www.w3.org/2000/svg">
<g filter="url(#filter0_d_110_434)">
<rect x="37" y="33" width="313.249" height="93.2504" rx="3.62137" fill="white"/>
</g>
<rect x="50.5801" y="51.1069" width="60.658" height="57.942" rx="3.62137" fill="#FD377E"/>
<rect x="123.008" y="51.1069" width="206.418" height="15.3908" rx="1.81069" fill="#FCEFFA"/>
<rect x="123.008" y="76.4565" width="52.5099" height="15.3908" rx="1.81069" fill="#FCEFFA"/>
<g clip-path="url(#clip0_110_434)">
<path d="M88.6045 72.8351H72.3084C71.3084 72.8351 70.4977 73.6458 70.4977 74.6458V85.5099C70.4977 86.5099 71.3084 87.3206 72.3084 87.3206H88.6045C89.6046 87.3206 90.4152 86.5099 90.4152 85.5099V74.6458C90.4152 73.6458 89.6046 72.8351 88.6045 72.8351Z" stroke="white" stroke-width="1.81069" stroke-linecap="round" stroke-linejoin="round"/>
<path d="M70.4977 78.2672H90.4152" stroke="white" stroke-width="1.81069" stroke-linecap="round" stroke-linejoin="round"/>
</g>
<defs>
<filter id="filter0_d_110_434" x="0.786259" y="0.407633" width="385.676" height="165.678" filterUnits="userSpaceOnUse" color-interpolation-filters="sRGB">
<feFlood flood-opacity="0" result="BackgroundImageFix"/>
<feColorMatrix in="SourceAlpha" type="matrix" values="0 0 0 0 0 0 0 0 0 0 0 0 0 0 0 0 0 0 127 0" result="hardAlpha"/>
<feOffset dy="3.62137"/>
<feGaussianBlur stdDeviation="18.1069"/>
<feComposite in2="hardAlpha" operator="out"/>
<feColorMatrix type="matrix" values="0 0 0 0 0 0 0 0 0 0 0 0 0 0 0 0 0 0 0.25 0"/>
<feBlend mode="normal" in2="BackgroundImageFix" result="effect1_dropShadow_110_434"/>
<feBlend mode="normal" in="SourceGraphic" in2="effect1_dropShadow_110_434" result="shape"/>
</filter>
<clipPath id="clip0_110_434">
<rect width="21.7282" height="21.7282" fill="white" transform="translate(69.5924 69.2137)"/>
</clipPath>
</defs>
</svg>
